<?xml version="1.0" standalone="no"?>
<!DOCTYPE svg PUBLIC "-//W3C//DTD SVG 20010904//EN"
 "http://www.w3.org/TR/2001/REC-SVG-20010904/DTD/svg10.dtd">
<svg version="1.0" xmlns="http://www.w3.org/2000/svg"
 width="512.000000pt" height="512.000000pt" viewBox="0 0 512.000000 512.000000"
 preserveAspectRatio="xMidYMid meet">
<metadata>
Created by potrace 1.14, written by Peter Selinger 2001-2017
</metadata>
<g transform="translate(0.000000,512.000000) scale(0.100000,-0.100000)"
fill="#000000" stroke="none">
<path d="M499 4153 c0 -235 -1 -924 -3 -1530 l-3 -1103 21 -1 c12 0 35 -2 51
-4 17 -2 57 -6 90 -10 102 -10 127 -14 230 -36 188 -39 314 -76 495 -148 144
-58 447 -218 458 -243 2 -5 8 -8 13 -8 14 0 176 -121 269 -200 81 -68 273
-261 297 -298 9 -12 18 -22 22 -22 6 0 8 2887 3 2912 -2 7 -114 158 -141 189
-372 437 -827 723 -1368 859 -65 16 -137 32 -159 35 -21 3 -64 10 -94 15 -30
5 -83 12 -117 15 l-63 6 -1 -428z"/>
<path d="M4510 4568 c-130 -15 -161 -21 -265 -44 -116 -26 -289 -76 -340 -99
-16 -8 -53 -23 -82 -34 -172 -67 -388 -190 -566 -324 -154 -115 -375 -336
-490 -489 l-88 -116 0 -1374 c0 -755 0 -1412 1 -1461 l0 -88 59 68 c231 268
575 521 911 673 216 97 479 177 675 205 28 4 57 9 65 10 45 8 122 16 175 20
l60 3 3 1531 2 1530 -32 -2 c-18 -1 -58 -5 -88 -9z"/>
<path d="M123 3862 l-123 -37 0 -1572 0 -1573 23 9 c51 20 314 71 436 86 30 4
63 8 73 10 117 23 529 22 713 -1 22 -3 47 -5 55 -6 8 0 78 -11 155 -25 193
-33 409 -91 620 -167 11 -4 -7 18 -40 49 -338 319 -766 535 -1225 619 -131 24
-193 31 -367 40 -55 3 -105 12 -123 21 -65 34 -61 -53 -61 1331 0 690 -4 1254
-7 1253 -4 0 -62 -17 -129 -37z"/>
<path d="M4866 3891 c-3 -4 -5 -568 -5 -1254 0 -1113 -2 -1249 -16 -1276 -30
-58 -57 -66 -245 -76 -97 -4 -176 -12 -220 -20 -14 -3 -41 -8 -60 -11 -83 -13
-250 -57 -349 -90 -325 -112 -627 -292 -871 -521 l-75 -71 175 58 c96 32 229
70 295 85 144 32 148 33 200 40 22 3 67 10 100 15 159 25 591 35 755 17 126
-13 165 -17 186 -22 12 -3 39 -7 60 -11 21 -3 91 -17 154 -31 63 -14 127 -27
143 -30 l27 -5 0 1565 0 1565 -78 26 c-43 15 -87 28 -98 30 -10 2 -31 9 -46
15 -15 6 -29 7 -32 2z"/>
</g>
</svg>
